<svg xmlns="http://www.w3.org/2000/svg" width="1024" height="1024" viewBox="0 0 1024 1024">
  <defs>
    <linearGradient id="bgGrad" x1="0%" y1="0%" x2="100%" y2="100%">
      <stop offset="0%" style="stop-color:#4f46e5"/>
      <stop offset="50%" style="stop-color:#6366f1"/>
      <stop offset="100%" style="stop-color:#818cf8"/>
    </linearGradient>
    <linearGradient id="lensGrad" x1="0%" y1="0%" x2="100%" y2="100%">
      <stop offset="0%" style="stop-color:#1e1b4b"/>
      <stop offset="100%" style="stop-color:#312e81"/>
    </linearGradient>
    <linearGradient id="glowGrad" x1="0%" y1="0%" x2="100%" y2="100%">
      <stop offset="0%" style="stop-color:#c7d2fe"/>
      <stop offset="100%" style="stop-color:#a5b4fc"/>
    </linearGradient>
  </defs>
  
  <!-- Background with rounded corners -->
  <rect width="1024" height="1024" rx="220" fill="url(#bgGrad)"/>
  
  <!-- Subtle pattern overlay -->
  <circle cx="200" cy="200" r="400" fill="rgba(255,255,255,0.03)"/>
  <circle cx="824" cy="824" r="300" fill="rgba(255,255,255,0.03)"/>
  
  <!-- Camera body outline -->
  <rect x="180" y="320" width="664" height="450" rx="60" fill="rgba(255,255,255,0.15)" stroke="rgba(255,255,255,0.3)" stroke-width="4"/>
  
  <!-- Camera lens outer ring -->
  <circle cx="512" cy="520" r="180" fill="url(#lensGrad)" stroke="rgba(255,255,255,0.4)" stroke-width="8"/>
  
  <!-- Camera lens middle ring -->
  <circle cx="512" cy="520" r="140" fill="#1e1b4b" stroke="rgba(255,255,255,0.2)" stroke-width="4"/>
  
  <!-- Camera lens inner -->
  <circle cx="512" cy="520" r="100" fill="#0f0a2e"/>
  
  <!-- Lens reflection/highlight -->
  <ellipse cx="470" cy="480" rx="35" ry="25" fill="rgba(255,255,255,0.3)" transform="rotate(-30 470 480)"/>
  <ellipse cx="540" cy="550" rx="20" ry="15" fill="rgba(255,255,255,0.15)" transform="rotate(-30 540 550)"/>
  
  <!-- Camera flash -->
  <rect x="680" y="360" width="80" height="50" rx="10" fill="rgba(255,255,255,0.25)"/>
  
  <!-- G1 Text Badge -->
  <rect x="340" y="720" width="344" height="120" rx="30" fill="rgba(255,255,255,0.95)"/>
  <text x="512" y="805" font-family="Arial Black, Arial, sans-serif" font-size="90" font-weight="900" fill="#4f46e5" text-anchor="middle">G1</text>
  
  <!-- Small decorative elements -->
  <circle cx="260" cy="380" r="20" fill="rgba(255,255,255,0.3)"/>
  <rect x="300" y="375" width="60" height="10" rx="5" fill="rgba(255,255,255,0.2)"/>
</svg>